<svg xmlns="http://www.w3.org/2000/svg" width="541" height="461" viewBox="0 0 541 461" version="1.1"><path d="M 199.953 156.356 C 192.090 159.168, 178 171.002, 178 174.793 C 178 183.002, 195.766 177.806, 205.417 166.774 C 213.621 157.395, 211.003 152.404, 199.953 156.356" stroke="none" fill="#23ea20" fill-rule="evenodd"/><path d="M 270.789 30.083 C 206.068 35.432, 140.724 65.575, 95.107 111.123 C -11.116 217.189, 27.030 372.587, 165.273 396.960 C 183.857 400.236, 194.297 399.045, 178.254 395.479 C 35.857 363.826, 13.030 185.170, 139.994 96.033 C 182.959 65.868, 224.799 49.675, 280 41.847 C 286.182 40.971, 298.756 40.526, 316 40.574 C 343.818 40.651, 345.373 40.816, 371.330 46.438 C 392.212 50.960, 390.939 48.434, 368.588 40.996 C 337.376 30.609, 306.330 27.145, 270.789 30.083 M 261.500 49.963 C 256.291 52.142, 251.961 58.687, 245.600 74 C 229.586 112.548, 227.766 115.484, 227 104 L 226.500 96.500 218.500 96.841 C 209.252 97.236, 201.230 94.767, 191.468 88.523 C 180.524 81.522, 177.326 83.209, 174.961 97.233 C 172.034 114.582, 175.323 116.480, 195.750 109.230 C 199.700 107.828, 195.988 111.458, 190.250 114.608 C 148.409 137.582, 126.814 158.812, 123.888 179.848 C 122.568 189.344, 120.574 194.592, 113.632 206.853 C 107.659 217.402, 95.679 245.672, 96.571 247.115 C 98.005 249.436, 105.609 248.018, 108.563 244.878 C 112.787 240.388, 116.298 239.174, 123.402 239.744 C 127.660 240.086, 130.650 239.755, 133.296 238.650 C 137.868 236.739, 138.836 237.938, 137.062 243.312 C 135.433 248.247, 132.124 250.839, 125.956 252.008 C 117.606 253.592, 116.065 255.669, 118.752 261.715 C 119.921 264.347, 121.132 268.075, 121.442 270 C 125.769 296.867, 184.514 295.393, 228.275 267.320 C 243.399 257.618, 257.043 253.150, 267.543 254.462 C 274.735 255.361, 274.427 256.324, 266.250 258.496 C 252.461 262.158, 252.677 261.704, 257.001 277.968 C 265.586 310.257, 243.745 342.687, 197.246 366.690 C 182.297 374.407, 188.507 380.174, 220.690 388.461 C 268.702 400.825, 280.730 395.959, 293.811 358.881 C 314.950 298.959, 299.197 245.016, 252.232 216.502 C 239.761 208.931, 241.305 208.127, 256.888 214.077 C 311.111 234.783, 343.732 301.725, 331.561 367.319 C 329.219 379.942, 329.549 380.217, 340.078 374.416 C 387.225 348.441, 394.395 332.845, 379.346 289 C 358.414 228.017, 321.205 198.517, 260.088 194.453 C 241.398 193.211, 258.891 188.842, 282.500 188.857 C 305.469 188.871, 320.354 192.884, 344.740 205.635 C 369.262 218.459, 396.061 244.647, 410.081 269.490 C 417.430 282.511, 420.014 274.734, 419.985 239.678 C 419.958 205.764, 414.941 196.688, 387.500 180.898 C 346.372 157.233, 303.471 155.175, 256.238 174.602 C 247.007 178.399, 247 178.401, 247 176.978 C 247 174.382, 281.358 155.058, 286.050 155.014 C 286.903 155.006, 288.028 154.595, 288.550 154.101 C 289.895 152.827, 305.507 149.080, 316.341 147.430 C 333.564 144.808, 361.242 146.097, 381 150.442 C 408.155 156.413, 350.340 109.539, 315.739 97.532 C 311.243 95.971, 310.919 96.332, 310.103 103.812 C 309.452 109.777, 307.638 111.679, 306.588 107.496 C 297.727 72.188, 275.666 44.039, 261.500 49.963 M 347.212 64.545 C 347.512 64.845, 351.299 65.944, 355.628 66.987 C 437.078 86.617, 490.257 163.444, 477.464 243 C 458.632 360.116, 304.076 445.385, 162.827 416.585 C 139.953 411.921, 140.463 414.193, 164 421.800 C 191.350 430.639, 223.654 435.256, 246.006 433.518 C 249.028 433.284, 255.550 432.823, 260.500 432.494 C 484.763 417.619, 593.213 145.903, 403.412 74.432 C 386.274 67.978, 343.039 60.372, 347.212 64.545 M 216.443 144.916 C 212.251 148.838, 202.966 152.974, 198.212 153.035 C 183.712 153.223, 176.527 158.167, 173.042 170.354 C 170.659 178.686, 167.753 185.146, 164.424 189.511 C 160.500 194.656, 161.721 194.662, 171.898 189.551 C 176.906 187.036, 183.365 184.499, 186.252 183.913 C 199.891 181.146, 208.179 172.727, 209.672 160.124 C 210.123 156.315, 210.767 155.096, 213.011 153.809 C 215.853 152.177, 221.446 143.791, 220.838 142.073 C 220.652 141.549, 218.674 142.829, 216.443 144.916 M 182.906 191.988 C 177.408 194.894, 172.456 200.407, 169.034 207.429 C 165.091 215.524, 159.304 222.108, 154.052 224.476 C 149.289 226.625, 149.246 228.362, 153.946 228.822 C 161.976 229.608, 168.447 224.022, 177.180 208.764 C 180.603 202.784, 184.887 196.363, 186.701 194.495 C 191.626 189.425, 189.906 188.288, 182.906 191.988 M 227.500 223.656 C 194.107 227.627, 165.562 237.203, 144.018 251.663 L 140.536 254 143.363 254 C 144.918 254, 152.646 251.075, 160.537 247.500 C 168.428 243.925, 175.304 241, 175.815 241 C 176.327 241, 178.759 240.110, 181.219 239.021 C 196.337 232.334, 231.103 225.045, 248.170 224.985 C 250.552 224.976, 253.175 224.533, 254 224 C 255.445 223.066, 234.723 222.798, 227.500 223.656 M 172 252.935 C 163.020 253.888, 150.439 257.222, 144.677 260.175 C 138.495 263.343, 141.747 263.516, 153.281 260.632 C 171.684 256.030, 175.639 255.595, 199 255.603 C 219.821 255.611, 221.090 255.512, 216 254.279 C 209.326 252.661, 182.344 251.837, 172 252.935 M 98 260.273 C 98 260.973, 99.567 262.389, 101.482 263.421 C 104.167 264.866, 105.109 266.122, 105.594 268.898 C 106.690 275.170, 112.948 284.511, 114.438 282.100 C 115.039 281.129, 112.235 269.198, 110.141 263.810 C 108.719 260.153, 98 257.029, 98 260.273 M 149.250 266.723 C 141.832 267.644, 146.969 268.729, 161.750 269.364 C 170.689 269.748, 181.068 270.827, 185.750 271.859 C 194.574 273.805, 196.172 273.406, 190.463 270.684 C 182.952 267.102, 162.240 265.111, 149.250 266.723 M 130.347 295.538 C 122.594 315.742, 157.692 333.921, 177.932 320.186 C 192.716 310.154, 197.286 293.441, 184.395 296.554 C 171.612 299.641, 153.936 299.672, 142.118 296.627 C 130.087 293.528, 131.083 293.620, 130.347 295.538" stroke="none" fill="#060606" fill-rule="evenodd"/></svg>