<svg xmlns="http://www.w3.org/2000/svg" width="681" height="366" viewBox="0 0 681 366" version="1.1"><path d="M 190.359 38.461 C 189.128 39.323, 188.044 41.474, 187.714 43.711 C 187.255 46.815, 174.033 111.214, 170.922 125.500 C 170.443 127.700, 168.655 136.025, 166.948 144 C 165.242 151.975, 163.473 160.075, 163.018 162 C 162.564 163.925, 161.031 171.125, 159.614 178 C 155.734 196.810, 153.031 209.296, 152.416 211.250 C 151.916 212.838, 150.058 213, 132.323 213 C 109.917 213, 111.904 214.939, 115.931 197 C 122.549 167.519, 126.414 171, 87.063 171 C 48.108 171, 52.905 168.795, 48.997 188.500 C 48.451 191.250, 47.553 195.525, 47 198 C 41.853 221.037, 43.983 229.202, 57 236.336 C 65.859 241.191, 189.937 241.043, 200.155 236.165 C 216.164 228.524, 220.582 219.473, 228.543 178.009 C 231.157 164.397, 237.684 132.847, 240.855 118.500 C 243.852 104.938, 249.939 76.897, 252.577 64.500 C 253.865 58.450, 255.689 50.199, 256.631 46.165 C 258.668 37.443, 201.329 30.777, 190.359 38.461 M 312.500 37.891 C 286.548 39.316, 277.890 49.037, 270.542 85 C 269.137 91.875, 267.296 100.650, 266.450 104.500 C 265.604 108.350, 263.845 116.900, 262.542 123.500 C 261.238 130.100, 259.045 140.675, 257.668 147 C 256.291 153.325, 253.287 167.275, 250.992 178 C 248.697 188.725, 245.060 205.484, 242.909 215.242 C 237.197 241.165, 235.910 238.657, 255.250 239.286 C 295.157 240.585, 304.762 240.302, 306.349 237.783 C 307.755 235.549, 308.506 232.227, 315.903 195.500 C 319.106 179.599, 359.120 164.022, 358.984 178.729 C 358.975 179.703, 357.394 187.700, 355.470 196.500 C 344.768 245.461, 341.285 239.414, 380.439 239.844 C 419.598 240.275, 415.393 242.453, 419.494 219.614 C 420.295 215.151, 423.007 201.825, 425.520 190 C 432.843 155.546, 439.864 122.281, 448.948 79 C 454.096 54.474, 452.118 46.629, 439.189 40.304 C 433.403 37.473, 349.285 35.871, 312.500 37.891 M 521 37.908 C 485.349 39.154, 479.339 45.405, 469.950 91 C 463.997 119.915, 453.891 167.638, 447.505 197 C 442.307 220.898, 444.700 230.629, 457.405 237.253 C 464.954 241.188, 591.870 240.127, 600.336 236.057 C 611.699 230.595, 619.556 221.251, 622.098 210.175 C 623.617 203.560, 629.039 178.278, 629.964 173.500 C 630.390 171.300, 631.732 164.852, 632.946 159.171 C 634.160 153.490, 634.908 148.202, 634.608 147.421 C 633.850 145.445, 543.840 145.279, 542.213 147.250 C 540.762 149.007, 536.624 169.577, 537.344 171.453 C 537.832 172.725, 539.986 173, 549.469 173 C 562.093 173, 561.631 172.714, 559.978 179.500 C 559.442 181.700, 557.869 189.125, 556.483 196 C 552.655 214.981, 555.461 213, 532.396 213 C 512.750 213, 512.750 213, 513.353 210.250 C 516.500 195.910, 518.529 186.250, 521.074 173.500 C 522.721 165.250, 524.531 156.773, 525.097 154.661 C 526.128 150.810, 531.886 123.365, 536.564 100 C 537.940 93.125, 539.703 84.800, 540.482 81.500 C 541.260 78.200, 542.402 72.912, 543.019 69.750 C 544.009 64.681, 584.098 59.788, 583.983 64.750 C 583.973 65.162, 583.278 68.650, 582.437 72.500 C 576.257 100.807, 573.011 98, 611.931 98 C 649.133 98, 646.220 98.955, 648.522 86 C 649.450 80.775, 650.624 74.475, 651.131 72 C 658.045 38.228, 640.837 33.720, 521 37.908 M 343.593 64.850 C 343.304 65.318, 341.033 75.780, 338.547 88.100 C 336.061 100.420, 332.254 119.050, 330.088 129.500 C 325.367 152.272, 323.613 150.104, 346.496 149.773 C 365.347 149.500, 365.347 149.500, 368.159 136.500 C 369.706 129.350, 372.349 117.200, 374.032 109.500 C 378.092 90.927, 382.973 66.811, 382.988 65.250 C 383.002 63.783, 344.493 63.393, 343.593 64.850 M 24.424 253.338 C 17.439 271.541, -1.827 270.479, 340.396 270.752 C 573.088 270.937, 656.648 270.707, 657.646 269.879 C 659.392 268.430, 659.517 254.917, 657.800 253.200 C 655.928 251.328, 25.142 251.465, 24.424 253.338 M 151.380 283.194 C 150.974 283.851, 150.307 287.564, 149.899 291.444 C 149.490 295.325, 148.596 302.550, 147.911 307.500 C 145.799 322.768, 145.745 322.500, 150.972 322.500 C 156.037 322.500, 155.899 322.818, 157.486 307.511 C 158.287 299.783, 159.535 300.609, 172.598 317.514 C 180.603 327.873, 181.488 327.532, 183.048 313.480 C 183.658 307.991, 184.571 301.301, 185.078 298.614 C 187.444 286.073, 185.818 281.598, 179.735 283.911 C 177.375 284.808, 177.118 285.590, 175.901 295.546 C 174.596 306.220, 174.596 306.220, 172.722 303.860 C 171.691 302.562, 169.644 300.097, 168.174 298.382 C 166.703 296.668, 163.053 292.280, 160.062 288.632 C 154.671 282.058, 152.805 280.889, 151.380 283.194 M 609.646 282.764 C 608.965 283.865, 607.235 294.423, 606.494 302 C 606.144 305.575, 605.384 311.364, 604.806 314.865 C 603.639 321.933, 604.195 322.956, 609.215 322.985 C 612.812 323.005, 613.680 321.125, 615.008 310.432 C 616.272 300.266, 616.484 299.818, 618.597 302.835 C 619.450 304.053, 621.802 307.016, 623.824 309.419 C 625.846 311.822, 629.525 316.308, 632 319.387 C 638.865 327.929, 639.433 327.526, 640.996 313 C 642.937 294.955, 643.832 288.081, 644.349 287.244 C 645.971 284.620, 639.611 282.098, 636.715 284.217 C 635.376 285.198, 634.655 287.956, 633.825 295.262 C 632.460 307.274, 633.043 307.356, 621.812 293.571 C 613.115 282.897, 610.822 280.860, 609.646 282.764 M 40.431 284.326 C 24.666 290.357, 22.438 311.836, 36.670 320.584 C 42.593 324.224, 54.992 324.096, 57.927 320.365 C 62.122 315.032, 60.091 310.276, 54.822 313.095 C 49.480 315.954, 40.148 313.816, 38.071 309.257 C 32.839 297.774, 44.973 287.418, 55.873 294.064 C 60.177 296.688, 62 295.981, 62 291.686 C 62 284.717, 50.060 280.643, 40.431 284.326 M 95.160 284.273 C 86.694 286.981, 79.750 298.851, 81.898 306.942 C 88.265 330.918, 125 327.132, 125 302.500 C 125 288.523, 110.177 279.469, 95.160 284.273 M 216.500 284.200 C 206.904 289.668, 207.172 298.326, 217.147 305.100 C 223.330 309.298, 224.565 312.092, 221.065 313.965 C 218.725 315.217, 214.547 313.868, 213.668 311.577 C 213.010 309.864, 209 309.368, 209 311 C 209 311.550, 208.325 312, 207.500 312 C 204.433 312, 205.861 316.722, 209.894 319.916 C 219.238 327.316, 232.500 322.114, 232.500 311.049 C 232.500 305.476, 231.012 303.369, 224.294 299.432 C 220.920 297.455, 219.954 296.335, 220.191 294.673 C 220.568 292.020, 224.144 291.263, 225.960 293.452 C 229.158 297.305, 236.288 292.284, 233.424 288.196 C 230.176 283.558, 221.304 281.463, 216.500 284.200 M 305.916 285.084 C 304.862 286.138, 303.998 287.788, 303.996 288.750 C 303.994 289.712, 303.087 297.444, 301.980 305.931 C 299.799 322.659, 299.855 322.954, 305.191 322.985 C 308.462 323.003, 309.052 322.129, 310.436 315.218 C 311.518 309.820, 311.518 309.820, 315.719 316.410 C 319.523 322.376, 320.237 323, 323.260 323 C 329.092 323, 329.292 321.476, 324.452 313.926 C 320.069 307.087, 320.069 307.087, 323.148 304.895 C 331.305 299.086, 329.011 285.981, 319.590 284.567 C 309.763 283.091, 307.836 283.164, 305.916 285.084 M 356.320 283.764 C 353.044 284.300, 349.439 306.644, 351.381 314.381 C 353.327 322.135, 367.492 325.748, 375.257 320.471 C 384.172 314.413, 388.532 284.500, 380.500 284.500 C 375.921 284.500, 376.267 283.655, 373.605 301.323 C 371.841 313.023, 371.083 314.202, 365.586 313.800 C 361.148 313.474, 360.638 310.225, 362.035 291.137 C 362.538 284.255, 361.501 282.917, 356.320 283.764 M 418.244 285.164 C 403.479 292.324, 402.788 313.749, 417.086 321.044 C 422.895 324.007, 433.893 323.808, 436.826 320.686 C 441.034 316.206, 438.534 308.866, 434.257 313.143 C 431.824 315.576, 421.860 314.538, 419.321 311.587 C 410.081 300.845, 423.477 286.569, 435.705 294.127 C 439.414 296.419, 440.384 296.021, 441.378 291.796 C 443.046 284.714, 428.041 280.412, 418.244 285.164 M 462.431 284.300 C 459.143 286.137, 460.674 292, 464.441 292 C 469.218 292, 469.348 292.576, 467.492 305.408 C 465.213 321.160, 465.446 322.500, 470.459 322.500 C 475.060 322.500, 475.162 322.246, 477.042 306.138 C 478.541 293.297, 479.052 292.197, 483.701 291.813 C 488.896 291.385, 490.194 284.641, 485.289 283.563 C 481.516 282.735, 464.236 283.292, 462.431 284.300 M 510.797 284.346 C 509.919 285.224, 508.810 289.672, 508.099 295.168 C 507.434 300.301, 506.396 307.932, 505.791 312.127 C 504.483 321.201, 504.969 323.005, 508.719 322.985 C 513.217 322.960, 514.152 321.683, 515.025 314.378 C 515.476 310.595, 516.566 302.583, 517.446 296.573 C 518.326 290.563, 518.698 285.308, 518.273 284.894 C 516.526 283.194, 512.262 282.881, 510.797 284.346 M 552.537 285.056 C 543.522 289.554, 540.581 294.639, 541.161 304.732 C 542.662 330.841, 583.286 328.688, 583.286 302.500 C 583.286 287.568, 566.543 278.070, 552.537 285.056 M 256.934 286.672 C 255.246 291.114, 257.073 292.812, 262.750 292.075 C 264.426 291.857, 264.346 295.773, 262.399 309.085 C 260.523 321.922, 260.751 323, 265.346 323 C 270.178 323, 270.623 322.029, 272.443 307.500 C 274.463 291.383, 274.225 292, 278.433 292 C 282.341 292, 284.562 289.347, 283.488 285.962 C 282.353 282.386, 258.320 283.029, 256.934 286.672 M 98.388 292.926 C 91.542 295.868, 89.808 306.858, 95.427 311.691 C 104.084 319.137, 116.745 311.116, 114.577 299.559 C 113.464 293.626, 104.912 290.122, 98.388 292.926 M 555.763 293.565 C 548.409 297.555, 548.270 309.131, 555.529 313.015 C 564.761 317.956, 575.516 309.894, 573.565 299.495 C 572.353 293.036, 562.678 289.813, 555.763 293.565 M 313.667 293.667 C 312.415 294.918, 312.959 300, 314.345 300 C 316.386 300, 319.321 296.278, 318.653 294.537 C 318.057 292.986, 314.899 292.434, 313.667 293.667" stroke="none" fill="#050505" fill-rule="evenodd"/></svg>